<svg xmlns="http://www.w3.org/2000/svg" width="32" height="32" viewBox="0 0 32 32">
  <defs>
    <style>
      .cls-1 {
        fill: #4e5155;
        fill-rule: evenodd;
      }
    </style>
  </defs>
  <path id="Key" class="cls-1" d="M870.023,6381h-9v-6.39l11.263-12.29,1.473,1.36-10.736,11.71V6379h5v-4h4.538l5.7-6.65,1.517,1.3-6.3,7.35h-3.458v4Zm13-12v-2a8,8,0,1,0-8-8h-2A10,10,0,1,1,883.023,6369Zm0-6a4,4,0,1,1,4-4A4,4,0,0,1,883.023,6363Zm0-6a2,2,0,1,0,2,2A2,2,0,0,0,883.023,6357Z" transform="translate(-861.031 -6349)"/>
</svg>
