<svg xmlns="http://www.w3.org/2000/svg" width="32" height="24" viewBox="0 0 32 24">
  <defs>
    <style>
      .cls-1 {
        fill: #4e5155;
        fill-rule: evenodd;
      }
    </style>
  </defs>
  <path id="Mastercard" class="cls-1" d="M236,6367h-0.025A4.012,4.012,0,1,1,236,6367Zm0.011-6a2,2,0,0,0-1.434,3.41,1.968,1.968,0,0,0,1.41.59l0.013,1v-1a2,2,0,0,0,1.421-3.41A1.968,1.968,0,0,0,236.012,6361Zm6.988,6h-0.025a3.987,3.987,0,0,1-2.821-1.19l1.424-1.4a1.965,1.965,0,0,0,1.409.59H243a2,2,0,0,0,1.405-.58,1.979,1.979,0,0,0,.595-1.41,2,2,0,0,0-.577-1.42,1.968,1.968,0,0,0-1.41-.59,1.837,1.837,0,0,0-1.418.58l-1.407-1.43A3.994,3.994,0,0,1,243,6359h0.024A4,4,0,0,1,243,6367Zm8,4H219v-24h32v24Zm-30-2h28v-20H221v20Zm26-14H223v-2h24v2Z" transform="translate(-219 -6347)"/>
</svg>
