<svg xmlns="http://www.w3.org/2000/svg" width="32" height="22" viewBox="0 0 32 22">
  <defs>
    <style>
      .cls-1 {
        fill: #26b4ff;
        fill-rule: evenodd;
      }
    </style>
  </defs>
  <path id="Cloud" class="cls-1" d="M1050.99,1645.97m9-10h-2c0-.14,0-0.29-0.01-0.43l-0.01-.13,0.01-.1a7.269,7.269,0,0,1,7.08-6.34l0.02,2a5.22,5.22,0,0,0-5.1,4.44C1059.99,1635.63,1059.99,1635.8,1059.99,1635.97Zm5,11H1052a8,8,0,0,1,0-16v2a6,6,0,0,0,0,12h12.99a9,9,0,0,0,.08-18,9.172,9.172,0,0,0-9.08,8.16,2.563,2.563,0,0,0,0,.48v0.36h-2v-0.29a4.556,4.556,0,0,1,.01-0.74,11.187,11.187,0,0,1,10.99-9.97h0.16A11,11,0,0,1,1064.99,1646.97Z" transform="translate(-1044 -1624.97)"/>
</svg>
