<svg xmlns="http://www.w3.org/2000/svg" width="32.16" height="32.18" viewBox="0 0 32.16 32.18">
  <defs>
    <style>
      .cls-1 {
        fill: #26b4ff;
        fill-rule: evenodd;
      }
    </style>
  </defs>
  <path id="Puzzle" class="cls-1" d="M1069.69,1453.89l-1.41-1.42,3.53-3.53-4.24-4.24,1.41-1.42,5.66,5.66Zm-9.18,9.19-15.55-15.56,14.13-14.14,5.65,5.66-1.41,1.41-4.24-4.24-11.31,11.31,12.73,12.73,3.53-3.53,1.41,1.41Zm10.58-20.16a5.9,5.9,0,0,1-.83-0.06l0.28-1.98a3.995,3.995,0,0,0,4.56-3.96,3.945,3.945,0,0,0-1.17-2.83,4.09,4.09,0,0,0-5.65,0,4.022,4.022,0,0,0-1.13,3.4l-1.98.27a6.035,6.035,0,0,1,1.69-5.08,6,6,0,0,1,8.49,0A6,6,0,0,1,1071.09,1442.92Zm-9.16,13.43a6,6,0,0,1-4.25-10.24,5.992,5.992,0,0,1,10.17,5.09l-1.98-.28a3.994,3.994,0,1,0-3.38,3.39l0.27,1.98A5.691,5.691,0,0,1,1061.93,1456.35Z" transform="translate(-1044.97 -1430.91)"/>
</svg>
