<svg xmlns="http://www.w3.org/2000/svg" width="28" height="32" viewBox="0 0 28 32">
  <defs>
    <style>
      .cls-1 {
        fill: #26b4ff;
        fill-rule: evenodd;
      }
    </style>
  </defs>
  <path id="Resume" class="cls-1" d="M690,1464H662v-26h2v24h24v-28H668v-2h22v32Zm-5-8H667v-2h18v2Zm0,4H667v-2h18v2Zm-9-16a4,4,0,1,1,4-4A4,4,0,0,1,676,1444Zm0-6a2,2,0,1,0,2,2A2,2,0,0,0,676,1438Zm6.214,14H669.792l1.331-7,2.529-.94,0.7,1.88-1.471.54-0.669,3.52h7.578l-0.667-3.43-1.517-.65,0.8-1.84,2.484,1.08Z" transform="translate(-662 -1432)"/>
</svg>
