<svg xmlns="http://www.w3.org/2000/svg" width="32" height="32" viewBox="0 0 32 32">
  <defs>
    <style>
      .cls-1 {
        fill: #26b4ff;
        fill-rule: evenodd;
      }
    </style>
  </defs>
  <path id="Search" class="cls-1" d="M672.953,1647.94a13,13,0,1,1,13-13A13.014,13.014,0,0,1,672.953,1647.94Zm0-24a11,11,0,1,0,11,11A11.01,11.01,0,0,0,672.953,1623.94Zm16,30a2.972,2.972,0,0,1-2.121-.88l-5.576-5.4,1.393-1.44,5.587,5.42a1,1,0,1,0,1.424-1.41l-5.425-5.6,1.435-1.39,5.415,5.59A3,3,0,0,1,688.954,1653.94ZM667.3,1640.59a8,8,0,0,1,0-11.31l1.414,1.41a6.013,6.013,0,0,0,0,8.49Z" transform="translate(-659.969 -1621.94)"/>
</svg>
