<svg xmlns="http://www.w3.org/2000/svg" width="20" height="31.97" viewBox="0 0 20 31.97">
  <defs>
    <style>
      .cls-1 {
        fill: #26b4ff;
        fill-rule: evenodd;
      }
    </style>
  </defs>
  <path id="Bulb" class="cls-1" d="M295.91,4853.46l-1.785-.91,2.532-4.9a8,8,0,1,0-11.315,0l0.115,0.12,2.405,4.79-1.787.89-2.263-4.5a10,10,0,1,1,14.374,0Zm-8.79,3.5-0.24-1.99,8-.97,0.24,1.99Zm0,3-0.24-1.99,8-.97,0.24,1.99Zm3.856,4.04a3.006,3.006,0,0,1-3-3h2a1,1,0,0,0,2,0h2A3.006,3.006,0,0,1,290.976,4864ZM287,4842h-2a6.005,6.005,0,0,1,6-6v2A4,4,0,0,0,287,4842Z" transform="translate(-281 -4832.03)"/>
</svg>
