<svg xmlns="http://www.w3.org/2000/svg" width="32" height="30" viewBox="0 0 32 30">
  <defs>
    <style>
      .cls-1 {
        fill: #26b4ff;
        fill-rule: evenodd;
      }
    </style>
  </defs>
  <path id="Paper_clip" data-name="Paper clip" class="cls-1" d="M666.937,4913a10,10,0,0,1-7.071-17.07l11.561-12.39,1.462,1.36-11.584,12.42a8,8,0,1,0,11.289,11.34l12.563-13.39a6,6,0,0,0,.023-8.51,5.993,5.993,0,0,0-8.485,0l-12.563,13.39a4.018,4.018,0,0,0-.035,5.69,3.976,3.976,0,0,0,2.823,1.17h0.01a4.061,4.061,0,0,0,2.836-1.18l12.055-12.57,1.444,1.38-12.071,12.59a6.014,6.014,0,0,1-4.26,1.78H666.92a6,6,0,0,1-4.225-10.25l12.564-13.39a8,8,0,1,1,11.335,11.29l-12.564,13.39A9.954,9.954,0,0,1,666.937,4913Z" transform="translate(-656.938 -4883)"/>
</svg>
