<svg xmlns="http://www.w3.org/2000/svg" width="32.125" height="32" viewBox="0 0 32.125 32">
  <defs>
    <style>
      .cls-1 {
        fill: #26b4ff;
        fill-rule: evenodd;
      }
    </style>
  </defs>
  <path id="Users" class="cls-1" d="M681.064,4613a9,9,0,1,1,9-9A9.012,9.012,0,0,1,681.064,4613Zm0-16a7,7,0,1,0,7,7A7.008,7.008,0,0,0,681.064,4597Zm11,16v-2a5,5,0,1,0,0-10v-2A7,7,0,1,1,692.063,4613Zm9,12h-6v-2h3.694l-0.743-5.2-3.2-.86,0.5-1.93,4.494,1.19Zm-7.875,2H668.937l1.235-10.42,4.715-1.53,0.618,1.9-3.5,1.14-0.819,6.91h19.749l-0.819-6.91-3.5-1.14,0.617-1.9,4.715,1.53Z" transform="translate(-668.938 -4595)"/>
</svg>
